<svg width="118" height="16" viewBox="0 0 118 16" fill="none" xmlns="http://www.w3.org/2000/svg">
<rect width="118" height="16" fill="#1E1E1E"/>
<g id="Frame 979" clip-path="url(#clip0_606_8006)">
<rect width="1920" height="12496" transform="translate(-519 -7439)" fill="#101112"/>
<g id="Group 41">
<g id="Group 39">
<g id="Who is James">
<g id="Shadow" opacity="0.8" filter="url(#filter0_f_606_8006)">
<ellipse cx="71.0737" cy="-287.5" rx="233.074" ry="251.5" fill="#101112"/>
</g>
<g id="Text">
<g id="buttons">
<g id="Button" filter="url(#filter1_d_606_8006)">
<rect x="-131.418" y="-14" width="273.333" height="44" rx="22" fill="url(#paint0_linear_606_8006)"/>
<g id="Vector">
<path d="M70.322 0.000260447C67.898 0.000260447 65.5284 2.19561 65.2559 5.36767V0.261763H61.7748V15.6574H65.2985V8.20528C65.2985 6.11778 66.778 3.17311 70.322 3.17311V0.000260447Z" fill="#101112"/>
<path d="M107.284 13.1927V2.64483H109.325C112.047 2.64483 114.259 4.34609 114.259 7.83371C114.259 11.3213 112.047 13.1927 109.325 13.1927H107.284ZM103.797 15.6595H109.751C113.408 15.6595 117.916 13.2778 117.916 7.83371C117.916 2.4747 113.408 0.263052 109.751 0.263052H103.797V15.6595Z" fill="#101112"/>
<path d="M90.4538 8.00403C90.4538 5.19694 91.8996 2.90023 94.2809 2.90023C96.5775 2.90023 97.8532 5.19694 97.8532 8.00403C97.8532 10.8111 96.5775 13.1078 94.2809 13.1078C91.8996 13.1078 90.4538 10.8111 90.4538 8.00403ZM86.8815 8.17413C86.8815 12.7676 89.2628 16 93.0052 16C95.7268 16 97.3428 14.2137 98.1935 11.3215V15.6597H101.68V0.263264H98.1935V4.3463C97.4281 1.62427 95.8121 0.00807385 93.2607 0.00807385C89.4329 0.00807385 86.8815 3.49567 86.8815 8.17413Z" fill="#101112"/>
<path d="M7.47161 16C3.13388 16 0.582275 12.5124 0.582275 8.17413C0.582275 3.6658 3.38904 0.00807385 8.7474 0.00807385C14.2759 0.00807385 16.1471 3.75086 16.2321 5.87743H12.2346C12.1495 4.68656 11.1289 2.90023 8.66233 2.90023C6.02569 2.90023 4.32463 5.19694 4.32463 8.00403C4.32463 10.8111 6.02569 13.1078 8.66233 13.1078C11.0438 13.1078 12.0645 11.2365 12.4897 9.36504H8.66233V7.83387H16.6935V15.6597H13.1702V10.7261C12.915 12.5124 11.8093 16 7.47161 16Z" fill="#101112"/>
<path d="M23.8373 15.9998C20.5202 15.9998 18.4789 13.7881 18.4789 9.36483V0.263052H22.0511V9.36483C22.0511 11.6615 23.1568 12.7674 25.028 12.7674C28.6853 12.7674 30.0462 8.25899 30.0462 5.11166V0.263052H33.6184V15.6595H30.1312V9.96026C29.4508 13.1076 27.5796 15.9998 23.8373 15.9998Z" fill="#101112"/>
<path d="M54.9652 0C51.9174 0 49.9948 2.94446 49.3672 5.66695C49.2599 2.01847 47.466 0 44.5955 0C42.1156 0 39.8148 2.21185 39.2172 5.71101V0.26191H35.7349V15.6587H39.2619V10.139C39.2619 8.77062 39.8323 3.15501 43.3828 3.15501C45.6828 3.15501 45.9225 5.22991 45.9225 8.06617V15.6587H49.4479V10.139C49.4479 8.77062 50.0419 3.15501 53.5924 3.15501C55.8905 3.15501 56.1279 5.22991 56.1279 8.06617V15.6587H59.658V6.55159C59.674 2.18252 58.1316 0 54.9652 0Z" fill="#101112"/>
<path d="M77.8889 0C73.3231 0 70.2292 3.58057 70.2292 7.99997C70.2292 12.8696 73.1716 15.9999 77.8889 15.9999C82.4548 15.9999 85.6036 12.4194 85.6036 7.99997C85.6036 3.13044 82.6041 0 77.8889 0ZM77.8889 13.2746C75.2308 13.2746 73.5092 11.024 73.5092 7.99997C73.5092 4.97596 75.2367 2.72527 77.8889 2.72527C80.5407 2.72527 82.1993 4.97596 82.1993 7.99997C82.1993 11.024 80.5391 13.2746 77.8889 13.2746Z" fill="#101112"/>
</g>
</g>
</g>
</g>
</g>
</g>
</g>
</g>
<defs>
<filter id="filter0_f_606_8006" x="-334" y="-711" width="810.147" height="847" filterUnits="userSpaceOnUse" color-interpolation-filters="sRGB">
<feFlood flood-opacity="0" result="BackgroundImageFix"/>
<feBlend mode="normal" in="SourceGraphic" in2="BackgroundImageFix" result="shape"/>
<feGaussianBlur stdDeviation="86" result="effect1_foregroundBlur_606_8006"/>
</filter>
<filter id="filter1_d_606_8006" x="-133.418" y="-15" width="277.333" height="48" filterUnits="userSpaceOnUse" color-interpolation-filters="sRGB">
<feFlood flood-opacity="0" result="BackgroundImageFix"/>
<feColorMatrix in="SourceAlpha" type="matrix" values="0 0 0 0 0 0 0 0 0 0 0 0 0 0 0 0 0 0 127 0" result="hardAlpha"/>
<feOffset dy="1"/>
<feGaussianBlur stdDeviation="1"/>
<feColorMatrix type="matrix" values="0 0 0 0 0.411765 0 0 0 0 0.317647 0 0 0 0 1 0 0 0 0.05 0"/>
<feBlend mode="normal" in2="BackgroundImageFix" result="effect1_dropShadow_606_8006"/>
<feBlend mode="normal" in="SourceGraphic" in2="effect1_dropShadow_606_8006" result="shape"/>
</filter>
<linearGradient id="paint0_linear_606_8006" x1="-147.098" y1="-9.84311" x2="-111.014" y2="101.013" gradientUnits="userSpaceOnUse">
<stop stop-color="#F7CE71"/>
<stop offset="1" stop-color="#F7B940"/>
</linearGradient>
<clipPath id="clip0_606_8006">
<rect width="1920" height="12496" fill="white" transform="translate(-519 -7439)"/>
</clipPath>
</defs>
</svg>
