<svg width="118" height="17" viewBox="0 0 118 17" fill="none" xmlns="http://www.w3.org/2000/svg">
<path d="M69.7397 0.0832683C67.3157 0.0832683 64.9461 2.27862 64.6736 5.45067V0.344771H61.1925V15.7404H64.7163V8.28829C64.7163 6.20079 66.1957 3.25611 69.7397 3.25611V0.0832683Z" fill="#101112"/>
<path d="M106.702 13.2757V2.72783H108.743C111.465 2.72783 113.676 4.4291 113.676 7.91672C113.676 11.4043 111.465 13.2757 108.743 13.2757H106.702ZM103.214 15.7425H109.169C112.826 15.7425 117.333 13.3608 117.333 7.91672C117.333 2.55771 112.826 0.346059 109.169 0.346059H103.214V15.7425Z" fill="#101112"/>
<path d="M89.8715 8.08704C89.8715 5.27995 91.3173 2.98323 93.6987 2.98323C95.9952 2.98323 97.2709 5.27995 97.2709 8.08704C97.2709 10.8941 95.9952 13.1908 93.6987 13.1908C91.3173 13.1908 89.8715 10.8941 89.8715 8.08704ZM86.2992 8.25714C86.2992 12.8506 88.6805 16.083 92.4229 16.083C95.1445 16.083 96.7605 14.2967 97.6112 11.4045V15.7428H101.098V0.346272H97.6112V4.42931C96.8459 1.70728 95.2299 0.0910817 92.6784 0.0910817C88.8507 0.0910817 86.2992 3.57868 86.2992 8.25714Z" fill="#101112"/>
<path d="M6.88933 16.083C2.5516 16.083 0 12.5954 0 8.25714C0 3.74881 2.80676 0.0910817 8.16512 0.0910817C13.6936 0.0910817 15.5648 3.83387 15.6498 5.96044H11.6523C11.5673 4.76957 10.5466 2.98323 8.08005 2.98323C5.44341 2.98323 3.74235 5.27995 3.74235 8.08704C3.74235 10.8941 5.44341 13.1908 8.08005 13.1908C10.4615 13.1908 11.4822 11.3195 11.9075 9.44805H8.08005V7.91688H16.1113V15.7428H12.5879V10.8091C12.3327 12.5954 11.227 16.083 6.88933 16.083Z" fill="#101112"/>
<path d="M23.255 16.0828C19.9379 16.0828 17.8966 13.8711 17.8966 9.44783V0.346059H21.4689V9.44783C21.4689 11.7445 22.5746 12.8504 24.4457 12.8504C28.103 12.8504 29.4639 8.342 29.4639 5.19467V0.346059H33.0361V15.7425H29.5489V10.0433C28.8685 13.1906 26.9973 16.0828 23.255 16.0828Z" fill="#101112"/>
<path d="M54.3829 0.0830078C51.3352 0.0830078 49.4125 3.02746 48.785 5.74996C48.6777 2.10148 46.8837 0.0830078 44.0132 0.0830078C41.5333 0.0830078 39.2325 2.29486 38.6349 5.79402V0.344917H35.1526V15.7417H38.6796V10.2221C38.6796 8.85363 39.25 3.23802 42.8005 3.23802C45.1005 3.23802 45.3403 5.31291 45.3403 8.14918V15.7417H48.8656V10.2221C48.8656 8.85363 49.4596 3.23802 53.0101 3.23802C55.3083 3.23802 55.5456 5.31291 55.5456 8.14918V15.7417H59.0757V6.6346C59.0917 2.26553 57.5493 0.0830078 54.3829 0.0830078Z" fill="#101112"/>
<path d="M77.3067 0.0830078C72.7408 0.0830078 69.6469 3.66357 69.6469 8.08298C69.6469 12.9526 72.5893 16.0829 77.3067 16.0829C81.8725 16.0829 85.0213 12.5024 85.0213 8.08298C85.0213 3.21345 82.0219 0.0830078 77.3067 0.0830078ZM77.3067 13.3576C74.6485 13.3576 72.9269 11.107 72.9269 8.08298C72.9269 5.05896 74.6544 2.80828 77.3067 2.80828C79.9584 2.80828 81.6171 5.05896 81.6171 8.08298C81.6171 11.107 79.9568 13.3576 77.3067 13.3576Z" fill="#101112"/>
</svg>
