<svg width="46" height="45" viewBox="0 0 46 45" fill="none" xmlns="http://www.w3.org/2000/svg">
<g id="Logo v.3">
<path id="Subtract" fill-rule="evenodd" clip-rule="evenodd" d="M27.4895 17.0101C29.3761 19.7602 32.5384 21.5354 36.2925 21.5354C40.3378 21.5354 42.6877 20.1076 44.8293 17.8173L41.9143 14.8725C40.2783 16.3895 38.8208 17.3116 36.4412 17.3116C32.8718 17.3116 30.403 14.3371 30.403 10.7677V10.7082C30.403 7.13881 32.9313 4.22379 36.4412 4.22379C38.5531 4.22379 40.1296 5.11615 41.7656 6.57365L44.6806 3.21246C42.7769 1.30878 40.3675 0 36.4709 0C32.5627 0 29.3766 1.81074 27.4895 4.57004V17.0101ZM26.4646 15.1284C25.9143 13.8165 25.614 12.3631 25.614 10.8272V10.7677C25.614 9.23777 25.9121 7.77938 26.4646 6.45775V15.1284Z" fill="url(#paint0_linear_606_9031)"/>
<path id="G" d="M36.5602 44.1306C30.0758 44.1306 25.614 39.6094 25.614 33.4224V33.3629C25.614 27.4437 30.2245 22.5952 36.5304 22.5952C40.2486 22.5952 42.5687 23.6065 44.7103 25.4507L41.8251 28.9309C40.2486 27.5924 38.7613 26.819 36.3817 26.819C33.0503 26.819 30.403 29.7638 30.403 33.3034V33.3629C30.403 37.1703 33.0205 39.9663 36.7089 39.9663C38.4044 39.9663 39.8619 39.5499 41.0219 38.717V35.7425H36.4115V31.7864H45.4539V40.8289C43.3123 42.6434 40.3675 44.1306 36.5602 44.1306Z" fill="url(#paint1_linear_606_9031)"/>
<path id="Subtract_2" fill-rule="evenodd" clip-rule="evenodd" d="M0 36.4496C2.68308 40.8401 6.76868 44.011 13.1715 44.011C17.0132 44.011 20.1231 42.8524 22.5623 40.4742C23.5622 39.4743 24.3981 38.2592 25.0365 36.8247C24.7426 35.7545 24.5891 34.6139 24.5891 33.4226V33.3631C24.5891 30.9915 25.2675 28.7761 26.4649 26.9204V0.71582H21.5866V29.315C21.5866 36.0837 18.0498 39.5595 13.2325 39.5595C8.78099 39.5595 6.09791 37.4252 3.47581 33.4616L0 36.4496Z" fill="url(#paint2_linear_606_9031)"/>
</g>
<defs>
<linearGradient id="paint0_linear_606_9031" x1="24.5117" y1="2.03455" x2="46.6751" y2="11.8146" gradientUnits="userSpaceOnUse">
<stop stop-color="#F7CE71"/>
<stop offset="1" stop-color="#F7B940"/>
</linearGradient>
<linearGradient id="paint1_linear_606_9031" x1="24.4759" y1="24.6298" x2="47.1159" y2="34.9449" gradientUnits="userSpaceOnUse">
<stop stop-color="#F7CE71"/>
<stop offset="1" stop-color="#F7B940"/>
</linearGradient>
<linearGradient id="paint2_linear_606_9031" x1="-1.5182" y1="4.80612" x2="31.8972" y2="14.9077" gradientUnits="userSpaceOnUse">
<stop stop-color="#F7CE71"/>
<stop offset="1" stop-color="#F7B940"/>
</linearGradient>
</defs>
</svg>
